<svg xmlns="http://www.w3.org/2000/svg" version="1.1" xmlns:xlink="http://www.w3.org/1999/xlink" xmlns:svgjs="http://svgjs.dev/svgjs" width="1920" height="1080" preserveAspectRatio="none" viewBox="0 0 1920 1080"><g mask="url(&quot;#SvgjsMask2302&quot;)" fill="none"><rect width="1920" height="1080" x="0" y="0" fill="url(&quot;#SvgjsLinearGradient2303&quot;)"></rect><path d="M0 0L346.9 0L0 363.55z" fill="rgba(255, 255, 255, .1)"></path><path d="M0 363.55L346.9 0L705.55 0L0 610.23z" fill="rgba(255, 255, 255, .075)"></path><path d="M0 610.23L705.55 0L1198.4299999999998 0L0 670.08z" fill="rgba(255, 255, 255, .05)"></path><path d="M0 670.08L1198.4299999999998 0L1333.8899999999999 0L0 948.6500000000001z" fill="rgba(255, 255, 255, .025)"></path><path d="M1920 1080L1443.3 1080L1920 963.71z" fill="rgba(0, 0, 0, .1)"></path><path d="M1920 963.71L1443.3 1080L695.37 1080L1920 690.96z" fill="rgba(0, 0, 0, .075)"></path><path d="M1920 690.96L695.3700000000001 1080L441.5000000000001 1080L1920 652.27z" fill="rgba(0, 0, 0, .05)"></path><path d="M1920 652.27L441.5 1080L347.90999999999997 1080L1920 284.33z" fill="rgba(0, 0, 0, .025)"></path></g><defs><mask id="SvgjsMask2302"><rect width="1920" height="1080" fill="#ffffff"></rect></mask><linearGradient x1="50%" y1="100%" x2="50%" y2="0%" gradientUnits="userSpaceOnUse" id="SvgjsLinearGradient2303"><stop stop-color="rgba(73, 146, 221, 1)" offset="0"></stop><stop stop-color="rgba(138, 162, 189, 1)" offset="1"></stop></linearGradient></defs></svg>